<?xml version="1.0" encoding="UTF-8" standalone="no"?>
<svg
   width="64"
   height="64"
   viewBox="0 0 16.933333 16.933334"
   version="1.1"
   id="svg2147"
   inkscape:version="1.1-alpha (17bc918465, 2021-03-28)"
   sodipodi:docname="all_icons.svg"
   xmlns:inkscape="http://www.inkscape.org/namespaces/inkscape"
   xmlns:sodipodi="http://sodipodi.sourceforge.net/DTD/sodipodi-0.dtd"
   xmlns="http://www.w3.org/2000/svg"
   xmlns:svg="http://www.w3.org/2000/svg">
  <sodipodi:namedview
     id="namedview2149"
     pagecolor="#ffffff"
     bordercolor="#666666"
     borderopacity="1.0"
     objecttolerance="10.0"
     gridtolerance="10.0"
     guidetolerance="10.0"
     inkscape:pageshadow="2"
     inkscape:pageopacity="0.0"
     inkscape:pagecheckerboard="0"
     inkscape:document-units="px"
     showgrid="false"
     units="px"
     inkscape:zoom="24.060157"
     inkscape:cx="19.077182"
     inkscape:cy="9.954216"
     inkscape:window-width="1920"
     inkscape:window-height="1016"
     inkscape:window-x="0"
     inkscape:window-y="27"
     inkscape:window-maximized="1"
     inkscape:current-layer="layer1"
     inkscape:snap-bbox="true"
     inkscape:bbox-paths="true"
     inkscape:bbox-nodes="true"
     inkscape:snap-bbox-edge-midpoints="true"
     inkscape:snap-bbox-midpoints="true"
     inkscape:snap-page="true" />
  <defs
     id="defs2144" />
  <g
     inkscape:label="Layer 1"
     inkscape:groupmode="layer"
     id="layer1">
    <rect
       style="fill:#b32323;fill-opacity:1;stroke-width:0.113242;stroke-linecap:round;stroke-linejoin:round;paint-order:fill markers stroke"
       id="rect2193"
       width="4.2333336"
       height="4.2333336"
       x="0"
       y="0" />
    <rect
       style="fill:#23b32a;fill-opacity:1;stroke-width:0.113242;stroke-linecap:round;stroke-linejoin:round;paint-order:fill markers stroke"
       id="rect2193-5"
       width="4.2333336"
       height="4.2333336"
       x="4.2333336"
       y="0" />
    <rect
       style="fill:#b32323;fill-opacity:1;stroke-width:0.113242;stroke-linecap:round;stroke-linejoin:round;paint-order:fill markers stroke"
       id="rect2193-3"
       width="4.2333336"
       height="4.2333336"
       x="8.4666672"
       y="1.9428903e-16" />
    <rect
       style="fill:#23b32a;fill-opacity:1;stroke-width:0.113242;stroke-linecap:round;stroke-linejoin:round;paint-order:fill markers stroke"
       id="rect2193-5-5"
       width="4.2333336"
       height="4.2333336"
       x="12.700001"
       y="1.9428903e-16" />
    <rect
       style="fill:#b32323;fill-opacity:1;stroke-width:0.113242;stroke-linecap:round;stroke-linejoin:round;paint-order:fill markers stroke"
       id="rect2193-6"
       width="4.2333336"
       height="4.2333336"
       x="4.2333336"
       y="4.2333336" />
    <rect
       style="fill:#23b32a;fill-opacity:1;stroke-width:0.113242;stroke-linecap:round;stroke-linejoin:round;paint-order:fill markers stroke"
       id="rect2193-5-2"
       width="4.2333336"
       height="4.2333336"
       x="8.4666672"
       y="4.2333336" />
    <rect
       style="fill:#23b32a;fill-opacity:1;stroke-width:0.113242;stroke-linecap:round;stroke-linejoin:round;paint-order:fill markers stroke"
       id="rect2193-5-2-9"
       width="4.2333336"
       height="4.2333336"
       x="0"
       y="4.2333336" />
    <rect
       style="fill:#b32323;fill-opacity:1;stroke-width:0.113242;stroke-linecap:round;stroke-linejoin:round;paint-order:fill markers stroke"
       id="rect2193-6-2"
       width="4.2333336"
       height="4.2333336"
       x="12.700001"
       y="4.2333336" />
    <rect
       style="fill:#b32323;fill-opacity:1;stroke-width:0.113242;stroke-linecap:round;stroke-linejoin:round;paint-order:fill markers stroke"
       id="rect2193-7"
       width="4.2333336"
       height="4.2333336"
       x="0"
       y="8.4666672" />
    <rect
       style="fill:#23b32a;fill-opacity:1;stroke-width:0.113242;stroke-linecap:round;stroke-linejoin:round;paint-order:fill markers stroke"
       id="rect2193-5-0"
       width="4.2333336"
       height="4.2333336"
       x="4.2333331"
       y="8.4666672" />
    <rect
       style="fill:#b32323;fill-opacity:1;stroke-width:0.113242;stroke-linecap:round;stroke-linejoin:round;paint-order:fill markers stroke"
       id="rect2193-3-9"
       width="4.2333336"
       height="4.2333336"
       x="8.4666672"
       y="8.4666672" />
    <rect
       style="fill:#23b32a;fill-opacity:1;stroke-width:0.113242;stroke-linecap:round;stroke-linejoin:round;paint-order:fill markers stroke"
       id="rect2193-5-5-3"
       width="4.2333336"
       height="4.2333336"
       x="12.700001"
       y="8.4666672" />
    <rect
       style="fill:#b32323;fill-opacity:1;stroke-width:0.113242;stroke-linecap:round;stroke-linejoin:round;paint-order:fill markers stroke"
       id="rect2193-6-6"
       width="4.2333336"
       height="4.2333336"
       x="4.2333331"
       y="12.700001" />
    <rect
       style="fill:#23b32a;fill-opacity:1;stroke-width:0.113242;stroke-linecap:round;stroke-linejoin:round;paint-order:fill markers stroke"
       id="rect2193-5-2-0"
       width="4.2333336"
       height="4.2333336"
       x="8.4666672"
       y="12.700001" />
    <rect
       style="fill:#23b32a;fill-opacity:1;stroke-width:0.113242;stroke-linecap:round;stroke-linejoin:round;paint-order:fill markers stroke"
       id="rect2193-5-2-9-6"
       width="4.2333336"
       height="4.2333336"
       x="0"
       y="12.700001" />
    <rect
       style="fill:#b32323;fill-opacity:1;stroke-width:0.113242;stroke-linecap:round;stroke-linejoin:round;paint-order:fill markers stroke"
       id="rect2193-6-2-2"
       width="4.2333336"
       height="4.2333336"
       x="12.700001"
       y="12.700001" />
    <path
       id="path31-3"
       style="fill:#ffffff;stroke-width:0.113242;stroke-linecap:round;stroke-linejoin:round;paint-order:fill markers stroke"
       d="M 2.1166667,0.06407899 A 2.0525921,2.0525921 0 0 0 0.06407894,2.1166668 2.0525921,2.0525921 0 0 0 2.1166667,4.1692546 2.0525921,2.0525921 0 0 0 4.1692546,2.1166668 2.0525921,2.0525921 0 0 0 2.1166667,0.06407899 Z m 0,0.3048909 A 1.7477165,1.7477165 0 0 1 3.8643637,2.1166668 1.7477165,1.7477165 0 0 1 2.1166667,3.8643638 1.7477165,1.7477165 0 0 1 0.36896984,2.1166668 1.7477165,1.7477165 0 0 1 2.1166667,0.36896989 Z m 0,0.98185221 A 0.76590603,0.76590603 0 0 0 1.350822,2.1166668 0.76590603,0.76590603 0 0 0 2.1166667,2.8825115 0.76590603,0.76590603 0 0 0 2.8825114,2.1166668 0.76590603,0.76590603 0 0 0 2.1166667,1.3508221 Z" />
    <g
       id="g5286"
       transform="matrix(0.91543779,0,0,0.91543779,0.64213864,0.07297584)">
      <path
         id="path4379"
         style="fill:#ffffff;fill-opacity:1;stroke:#fefefe;stroke-width:0.264583;stroke-linecap:butt;stroke-linejoin:miter;stroke-miterlimit:4;stroke-dasharray:none;stroke-opacity:1"
         d="M 6.7337085,0.50540207 C 6.1911042,1.0396495 6.2360234,2.2315873 6.2360234,2.2315873 c 0,0 1.1915731,0.044555 1.7258199,-0.4980504 C 8.477867,1.2094422 8.2914728,0.77044237 7.9943647,0.47324597 7.6971727,0.17596567 7.2578035,-0.01062134 6.7337085,0.50540207 Z"
         sodipodi:nodetypes="scsss" />
      <path
         id="path4379-8"
         style="fill:#ffffff;fill-opacity:1;stroke:#fefefe;stroke-width:0.264583;stroke-linecap:butt;stroke-linejoin:miter;stroke-miterlimit:4;stroke-dasharray:none;stroke-opacity:1"
         d="M 5.7365255,3.9595457 C 6.2791298,3.4252983 6.2342106,2.2333604 6.2342106,2.2333604 c 0,0 -1.1915731,-0.044555 -1.7258199,0.4980504 -0.5160237,0.5240948 -0.3296295,0.9630946 -0.032521,1.260291 0.297192,0.2972803 0.7365612,0.4838673 1.2606558,-0.032156 z"
         sodipodi:nodetypes="scsss" />
      <path
         id="path4379-8-7"
         style="fill:none;fill-opacity:1;stroke:#fefefe;stroke-width:0.264583px;stroke-linecap:butt;stroke-linejoin:miter;stroke-opacity:1"
         d="M 6.7337085,3.9595457 C 6.1911042,3.4252983 6.2360234,2.2333604 6.2360234,2.2333604 c 0,0 1.1915731,-0.044555 1.7258199,0.4980504 0.5160237,0.5240948 0.3296295,0.9630946 0.032521,1.260291 -0.297192,0.2972803 -0.7365612,0.4838673 -1.2606558,-0.032156 z"
         sodipodi:nodetypes="scsss" />
      <path
         id="path4379-8-7-9"
         style="fill:none;fill-opacity:1;stroke:#fefefe;stroke-width:0.264583px;stroke-linecap:butt;stroke-linejoin:miter;stroke-opacity:1"
         d="m 5.7365255,0.5071751 c 0.5426043,0.5342474 0.4976851,1.7261853 0.4976851,1.7261853 0,0 -1.1915731,0.044555 -1.7258199,-0.4980504 C 3.992367,1.2112152 4.1787612,0.7722154 4.4758697,0.475019 4.7730617,0.1777387 5.2124309,-0.0088483 5.7365255,0.5071751 Z"
         sodipodi:nodetypes="scsss" />
    </g>
  </g>
</svg>
